<svg width="80" height="80" viewBox="0 0 80 80" fill="none" xmlns="http://www.w3.org/2000/svg">
<circle cx="40" cy="40" r="40" fill="#13670B"/>
<path d="M38.6278 57.791C39.5174 58.0697 40.4865 58.0697 41.3762 57.791C47.445 55.8944 49.6373 54.3454 49.6373 54.3454C55.9444 50.4256 56 45.2789 56 45.2789V29.0353C56 28.239 55.2891 27.5549 54.4153 27.526C49.9392 27.3812 43.3422 24.3844 40.9274 23.2117C40.3475 22.9294 39.6525 22.9294 39.0726 23.2117C36.6578 24.3808 30.0648 27.3812 25.5847 27.526C24.7109 27.5549 24 28.239 24 29.0353V45.2789C24 45.2789 24.0556 50.4256 30.3627 54.3454C30.3666 54.3454 32.559 55.8944 38.6278 57.791Z" fill="white"/>
<path d="M38.4486 47C38.0861 47 37.7187 46.8614 37.4421 46.5842L32.4186 41.5466C31.8605 40.9875 31.8605 40.0841 32.4186 39.5297C32.9768 38.9705 33.8784 38.9705 34.4318 39.5297L38.4486 43.554L46.5682 35.4194C47.1264 34.8602 48.028 34.8602 48.5814 35.4194C49.1395 35.9786 49.1395 36.8819 48.5814 37.4363L39.4552 46.5794C39.1785 46.8614 38.816 47 38.4486 47Z" fill="#13670B"/>
</svg>
