<svg width="80" height="80" viewBox="0 0 80 80" fill="none" xmlns="http://www.w3.org/2000/svg">
<circle cx="40.0005" cy="40" r="40" fill="#13670B"/>
<path d="M59.6206 55.8486C59.6206 56.4271 59.5222 56.9666 59.3242 57.4677C59.1275 57.9694 58.8461 58.4105 58.4817 58.7911C58.1173 59.1716 57.6917 59.468 57.2054 59.6801C56.7198 59.8922 56.1878 59.9993 55.6106 60H25.2841C24.7069 60 24.16 59.8935 23.6438 59.6801C23.1275 59.4666 22.6716 59.1709 22.2759 58.7911C21.8802 58.4112 21.5688 57.9708 21.3415 57.4677C21.1138 56.9659 21 56.4265 21 55.8486L21 33.0792C21 31.9228 21.4024 30.9416 22.2073 30.1354C23.0125 29.3296 23.9924 28.9265 25.1471 28.9265H55.4733C56.6283 28.9265 57.6082 29.3296 58.4138 30.1354C59.2179 30.9416 59.6207 31.9229 59.6207 33.0792V39.2847H49.2758C48.1207 39.2847 47.1409 39.6804 46.336 40.4714C45.5312 41.2635 45.1285 42.2373 45.1285 43.3923C45.1587 44.1837 45.3258 44.8834 45.6302 45.4916C45.8733 46.0088 46.2761 46.4803 46.8377 46.9066C47.3994 47.3329 48.2123 47.5464 49.2758 47.5464H59.6206V55.8512V55.8486H59.6206ZM53.4231 26.8282H32.7335C34.3745 25.9766 35.9242 25.1549 37.3823 24.3636C38.6589 23.6938 39.9197 23.0244 41.165 22.3559C42.4102 21.6868 43.3827 21.1696 44.0818 20.8035C45.1453 20.2253 46.0942 19.959 46.9293 20.0051C47.7645 20.0506 48.4709 20.1954 49.0481 20.4385C49.7176 20.7736 50.2941 21.2144 50.7804 21.7615L53.4231 26.8282ZM47.2257 43.3924C47.2257 42.8139 47.4224 42.3276 47.8177 41.9323C48.2124 41.5369 48.6979 41.339 49.2758 41.339C49.8537 41.339 50.3392 41.5369 50.7339 41.9323C51.1286 42.3276 51.3259 42.8139 51.3259 43.3924C51.3259 43.9709 51.1286 44.4653 50.7339 44.8761C50.3392 45.2869 49.8537 45.4917 49.2758 45.4917C48.6979 45.4917 48.2123 45.2869 47.8177 44.8761C47.4223 44.4653 47.2257 43.9709 47.2257 43.3924Z" fill="white"/>
</svg>
