<svg width="80" height="80" viewBox="0 0 80 80" fill="none" xmlns="http://www.w3.org/2000/svg">
<circle cx="40" cy="40" r="40" fill="#13670B"/>
<g clip-path="url(#clip0_972_400)">
<path d="M40 20C36.0444 20 32.1776 21.173 28.8886 23.3706C25.5996 25.5682 23.0362 28.6918 21.5224 32.3463C20.0087 36.0009 19.6126 40.0222 20.3843 43.9018C21.156 47.7814 23.0608 51.3451 25.8579 54.1421C28.6549 56.9392 32.2186 58.844 36.0982 59.6157C39.9778 60.3874 43.9992 59.9913 47.6537 58.4776C51.3082 56.9638 54.4318 54.4004 56.6294 51.1114C58.827 47.8224 60 43.9556 60 40C60 34.6957 57.8929 29.6086 54.1421 25.8579C50.3914 22.1071 45.3043 20 40 20ZM46.1833 46.0167C45.8711 46.3271 45.4487 46.5013 45.0083 46.5013C44.568 46.5013 44.1456 46.3271 43.8333 46.0167L38.3333 40.5167V29.8333C38.3333 29.3913 38.5089 28.9674 38.8215 28.6548C39.1341 28.3423 39.558 28.1667 40 28.1667C40.442 28.1667 40.866 28.3423 41.1785 28.6548C41.4911 28.9674 41.6667 29.3913 41.6667 29.8333V39.15L46.1833 43.6667C46.4938 43.9789 46.668 44.4014 46.668 44.8417C46.668 45.282 46.4938 45.7044 46.1833 46.0167Z" fill="white"/>
</g>
<defs>
<clipPath id="clip0_972_400">
<rect width="40" height="40" fill="white" transform="translate(20 20)"/>
</clipPath>
</defs>
</svg>
