<svg width="40" height="40" viewBox="0 0 40 40" fill="none" xmlns="http://www.w3.org/2000/svg">
<path d="M38.3672 33.2656C38.3672 35.3359 37.7031 37 36.4375 38.1953C35.1719 39.3906 33.5078 39.9922 31.4375 39.9922H8.63281C6.5 39.9922 4.83594 39.3906 3.5625 38.1953C2.29687 36.9922 1.63281 35.3281 1.63281 33.2656C1.63281 32.3359 1.63281 31.4688 1.70312 30.6016C1.77344 29.7344 1.90625 28.8047 2.03906 27.7344C2.17188 26.6641 2.4375 25.8047 2.70312 24.9375C2.96875 24.0703 3.36719 23.2031 3.83594 22.4062C4.30469 21.6094 4.83594 20.875 5.4375 20.2734C6.03906 19.6719 6.77344 19.2031 7.64062 18.875C8.50781 18.5469 9.50781 18.3438 10.5703 18.3438C10.7031 18.3438 11.1016 18.5469 11.6406 18.875C12.1797 19.2031 12.8438 19.6719 13.5703 20.1406C14.3047 20.6094 15.2344 21.0078 16.3672 21.4062C17.5 21.8047 18.7031 21.9375 19.8359 21.9375C20.9688 21.9375 22.1719 21.7344 23.3047 21.4062C24.4375 21.0078 25.375 20.6094 26.1016 20.1406C26.8359 19.6719 27.5 19.2734 28.0312 18.875C28.5625 18.4766 28.9609 18.3438 29.1016 18.3438C30.1719 18.3438 31.1016 18.5469 32.0312 18.875C32.9609 19.2031 33.6328 19.6719 34.2344 20.2734C34.8359 20.875 35.3672 21.5391 35.8359 22.4062C36.3047 23.2734 36.7031 24.0703 36.9688 24.9375C37.2344 25.8047 37.5 26.7344 37.6328 27.7344C37.7656 28.7344 37.9688 29.6641 37.9688 30.6016C37.9688 31.5391 38.3672 32.3359 38.3672 33.2656ZM30.0312 10C30.0312 12.7344 29.0312 15.1328 27.1016 17.0703C25.1719 19 22.7656 20 20.0312 20C17.2969 20 14.8984 19 12.9609 17.0703C11.0234 15.1406 10.0312 12.7344 10.0312 10C10.0312 7.26562 11.0312 4.86719 12.9609 2.92969C14.8906 0.992188 17.2969 0 20.0312 0C22.7656 0 25.1641 1 27.1016 2.92969C29.0312 4.86719 30.0312 7.26562 30.0312 10Z" fill="#13670B"/>
</svg>
