<svg width="40" height="40" viewBox="0 0 40 40" fill="none" xmlns="http://www.w3.org/2000/svg">
<path d="M38.6206 35.8486C38.6206 36.4271 38.5222 36.9666 38.3242 37.4677C38.1275 37.9694 37.8461 38.4105 37.4817 38.7911C37.1173 39.1716 36.6917 39.468 36.2054 39.6801C35.7198 39.8922 35.1878 39.9993 34.6106 40H4.28405C3.70685 40 3.16 39.8935 2.64375 39.6801C2.1275 39.4666 1.67155 39.1709 1.2759 38.7911C0.880201 38.4112 0.568751 37.9708 0.34145 37.4677C0.1138 36.9659 7.45524e-08 36.4265 7.45524e-08 35.8486L0 13.0792C0 11.9228 0.4024 10.9416 1.20725 10.1354C2.01245 9.32957 2.99235 8.92652 4.14705 8.92652H34.4733C35.6283 8.92652 36.6082 9.32962 37.4138 10.1354C38.2179 10.9416 38.6207 11.9229 38.6207 13.0792V19.2847H28.2758C27.1207 19.2847 26.1409 19.6804 25.336 20.4714C24.5312 21.2635 24.1285 22.2373 24.1285 23.3923C24.1587 24.1837 24.3258 24.8834 24.6302 25.4916C24.8733 26.0088 25.2761 26.4803 25.8377 26.9066C26.3994 27.3329 27.2123 27.5464 28.2758 27.5464H38.6206V35.8512V35.8486H38.6206ZM32.4231 6.82822H11.7335C13.3745 5.97657 14.9242 5.15492 16.3823 4.36362C17.6589 3.69381 18.9197 3.02436 20.165 2.35591C21.4102 1.68681 22.3827 1.16956 23.0818 0.803513C24.1453 0.225312 25.0942 -0.0410382 25.9293 0.00511185C26.7645 0.0505619 27.4709 0.195362 28.0481 0.438462C28.7176 0.773563 29.2941 1.21436 29.7804 1.76151L32.4231 6.82822ZM26.2257 23.3924C26.2257 22.8139 26.4224 22.3276 26.8177 21.9323C27.2124 21.5369 27.6979 21.339 28.2758 21.339C28.8537 21.339 29.3392 21.5369 29.7339 21.9323C30.1286 22.3276 30.3259 22.8139 30.3259 23.3924C30.3259 23.9709 30.1286 24.4653 29.7339 24.8761C29.3392 25.2869 28.8537 25.4917 28.2758 25.4917C27.6979 25.4917 27.2123 25.2869 26.8177 24.8761C26.4223 24.4653 26.2257 23.9709 26.2257 23.3924Z" fill="#13670B"/>
</svg>
