<svg width="40" height="40" viewBox="0 0 40 40" fill="none" xmlns="http://www.w3.org/2000/svg">
<path d="M23.7759 1.00293H15.3913C14.3559 1.00293 13.4759 1.88293 13.4759 3.02111C13.4759 4.1602 14.2522 5.0402 15.3913 5.0402H23.7259C24.7604 5.0402 25.4859 4.1602 25.4859 3.02202C25.6922 1.88293 24.9159 1.00293 23.7768 1.00293H23.7759ZM32.8868 2.4002H28.6941C28.6941 2.65929 28.7977 2.91838 28.7977 3.02111C28.7977 4.78111 27.555 6.43748 26.1577 6.43748H13.3713C11.715 6.43748 10.5759 4.78111 10.5759 3.02111C10.5759 2.76293 10.5759 2.50293 10.6795 2.4002H6.38316C2.96679 2.4002 2.19043 4.31566 2.19043 7.11111V34.4429C2.19043 37.3411 3.32952 38.9975 6.64225 38.9975H32.5759C35.8895 38.9975 37.3904 37.7557 37.3904 34.2875V7.11111C37.4422 4.31566 36.045 2.4002 32.8868 2.4002ZM28.5913 29.3693H10.5759C9.95498 29.3693 9.33407 28.5929 9.33407 27.8693C9.33407 27.2475 9.85225 26.6266 10.5759 26.6266H28.5386C29.1595 26.6266 29.7813 27.1438 29.7813 27.8684C29.7295 28.4893 29.315 29.3693 28.5904 29.3693H28.5913ZM28.695 22.1747H10.5768C9.95588 22.1747 9.43861 21.3975 9.43861 20.7766C9.43861 20.1557 9.95679 19.3793 10.6804 19.3793H28.6432C29.2641 19.3793 29.8859 20.0002 29.8859 20.7766C30.0922 21.3975 29.3159 22.1747 28.695 22.1747ZM28.695 14.6684H10.5768C9.95588 14.6684 9.43861 13.892 9.43861 13.2711C9.43861 12.6493 9.95679 11.8729 10.6804 11.8729H28.6432C29.2641 11.8729 29.8859 12.4947 29.8859 13.2711C30.0922 13.9438 29.3159 14.6684 28.695 14.6684Z" fill="#13670B"/>
</svg>
