<svg width="50" height="50" viewBox="0 0 50 50" fill="none" xmlns="http://www.w3.org/2000/svg">
<path d="M47.3173 4.86957C47.2498 4.58074 47.103 4.31653 46.8932 4.1068C46.6835 3.89708 46.4193 3.75019 46.1304 3.68276C37.4509 1.68885 27.9828 4.06167 21.2366 10.8077C20.2859 11.7596 19.409 12.7824 18.6133 13.8672C18.3879 14.1742 18.0655 14.3867 17.6963 14.478C14.1721 15.3505 10.7772 17.1917 7.95835 20.0105C6.69698 21.2698 5.59852 22.6822 4.68867 24.2148C3.91791 25.5164 5.23887 27.0514 6.65759 26.5271C8.89635 25.6998 11.3153 25.2934 13.8085 25.2918C13.7738 25.5043 13.7237 25.7143 13.6938 25.9268C15.4435 27.9633 17.2688 29.9335 19.1659 31.8334C21.0656 33.7307 23.0359 35.5559 25.0726 37.3053C25.2851 37.2754 25.4952 37.2253 25.7069 37.1906C25.7053 39.6838 25.2989 42.1027 24.4716 44.3414C23.9472 45.76 25.4823 47.081 26.7838 46.3102C28.3167 45.4004 29.7295 44.302 30.9891 43.0406C33.8071 40.2227 35.6484 36.827 36.521 33.3038C36.6123 32.9346 36.8256 32.6122 37.1318 32.3868C38.2166 31.5911 39.2394 30.7142 40.1914 29.7635C46.9384 23.0159 49.3112 13.5489 47.3173 4.86957ZM36.4442 22.1878C35.432 23.2 34.0591 23.7687 32.6276 23.7687C31.196 23.7687 29.8232 23.2 28.8109 22.1878C27.7987 21.1756 27.23 19.8028 27.23 18.3713C27.23 16.9398 27.7987 15.5669 28.8109 14.5547C29.8232 13.5425 31.196 12.9739 32.6276 12.9739C33.3364 12.9739 34.0383 13.1135 34.6931 13.3847C35.348 13.656 35.943 14.0535 36.4442 14.5547C36.9454 15.0559 37.343 15.6509 37.6143 16.3058C37.8855 16.9606 38.0251 17.6625 38.0251 18.3713C38.0251 19.0801 37.8855 19.7819 37.6143 20.4368C37.343 21.0916 36.9454 21.6866 36.4442 22.1878Z" fill="#13670B"/>
<path d="M9.94816 33.9017C8.31211 35.5377 1.37606 45.6745 3.35064 47.649C5.32521 49.6235 15.4623 42.6868 17.0983 41.0516C18.7344 39.4156 18.4597 36.4894 16.4851 34.5157C14.5105 32.5404 11.5834 32.2657 9.94816 33.9017Z" fill="#13670B"/>
</svg>
