<svg width="50" height="50" viewBox="0 0 50 50" fill="none" xmlns="http://www.w3.org/2000/svg">
<path d="M37.003 47.9884C36.6424 47.9899 36.2867 47.9006 35.9658 47.728L24.4662 41.4073L12.9666 47.728C12.5932 47.9341 12.1722 48.0262 11.7514 47.9936C11.3307 47.961 10.9271 47.8052 10.5865 47.5438C10.2459 47.2824 9.98199 46.9259 9.82477 46.5149C9.66755 46.1039 9.62332 45.6548 9.69712 45.2186L11.9519 31.8908L2.66208 22.4216C2.37224 22.1179 2.16663 21.7371 2.06732 21.3201C1.96801 20.903 1.97875 20.4654 2.09838 20.0543C2.22907 19.6335 2.46947 19.2597 2.7923 18.9752C3.11513 18.6906 3.50746 18.5068 3.92478 18.4445L16.7772 16.4797L22.4368 4.33542C22.6215 3.93518 22.9098 3.59763 23.2687 3.36145C23.6276 3.12527 24.0426 3 24.4662 3C24.8898 3 25.3048 3.12527 25.6637 3.36145C26.0226 3.59763 26.3109 3.93518 26.4955 4.33542L32.2228 16.456L45.0752 18.4208C45.4925 18.4831 45.8849 18.6669 46.2077 18.9515C46.5305 19.236 46.7709 19.6099 46.9016 20.0306C47.0213 20.4417 47.032 20.8793 46.9327 21.2964C46.8334 21.7134 46.6278 22.0942 46.3379 22.3979L37.0481 31.8671L39.3029 45.195C39.3834 45.6388 39.3412 46.0975 39.1814 46.517C39.0216 46.9365 38.7508 47.2992 38.401 47.5623C37.9926 47.8627 37.501 48.0125 37.003 47.9884Z" fill="#13670B"/>
</svg>
