<svg width="50" height="50" viewBox="0 0 50 50" fill="none" xmlns="http://www.w3.org/2000/svg">
<path d="M21.2133 24.3566C19.7586 23.4506 18.6346 22.4132 17.775 21.0934C14.6646 16.3231 15.7611 8.81533 21.3703 5.91288C24.8747 4.10094 29.3598 5.04046 31.944 8.2505C34.7624 11.7541 35.2968 15.6101 33.4951 19.7848C32.776 21.4513 31.7842 22.8774 30.302 23.9232C30.1891 24.0015 30.0871 24.0993 29.9852 24.1916C29.9576 24.2168 29.9439 24.2587 29.8805 24.3734C30.2139 24.4545 30.5279 24.5216 30.8365 24.611C34.688 25.7295 37.9141 27.7484 40.1401 31.2296C41.3799 33.1702 42.1596 35.2953 42.5177 37.5602C42.7739 39.1904 42.9034 40.8486 42.9943 42.4983C43.0715 43.916 42.3607 44.7437 40.8757 45.1883C39.0437 45.7391 37.151 45.809 35.2665 45.8565C28.0071 46.0355 20.7477 46.097 13.491 45.7419C12.3614 45.686 11.2236 45.4651 10.1244 45.1855C8.51268 44.7744 7.95341 43.8908 8.003 42.2131C8.06637 40.0321 8.27299 37.8762 8.8846 35.7707C10.4494 30.3712 13.8657 26.7809 19.0974 24.955C19.4308 24.8375 19.7669 24.7229 20.1085 24.625C20.4198 24.5327 20.7421 24.4684 21.2133 24.3566Z" fill="#13670B"/>
<path d="M15.2071 7.44886C12.1317 12.7373 12.299 17.9616 15.5612 23.1774C8.66315 26.5626 5.61004 32.4901 4.75684 39.8828C3.47983 39.9135 2.21398 39.9609 1.06801 39.3832C0.674873 39.1851 0.217603 38.6967 0.17578 38.3004C0.0391564 36.9637 -0.0863139 35.5906 0.0781917 34.2678C0.53825 30.5282 2.20003 27.3719 5.08864 24.9105C6.46882 23.7356 8.04417 22.8984 9.78123 22.3765C9.96804 22.3207 10.1549 22.2593 10.4476 22.17C8.42336 21.0481 7.1129 19.449 6.48554 17.3085C5.8554 15.1569 6.08125 13.0806 7.1352 11.1159C8.78862 8.03213 12.1429 6.52513 15.2071 7.44886ZM34.4766 23.1747C37.8336 17.9141 37.8169 12.6508 34.8195 7.28421C36.3754 6.81257 37.8894 6.9242 39.3309 7.647C42.0271 9.00051 43.5132 11.2387 43.7363 14.2192C43.9677 17.2974 42.8636 19.8369 40.3068 21.6649C40.067 21.8351 39.791 21.9579 39.4759 22.1337C39.6264 22.2119 39.7296 22.2844 39.8467 22.3235C45.5263 24.2351 48.7105 28.2984 49.8202 34.0669C50.0656 35.3339 49.9987 36.6762 49.968 37.9795C49.9457 38.853 49.3462 39.4223 48.5125 39.5814C47.4697 39.7823 46.4046 39.8605 45.281 40C44.5086 32.4706 41.4053 26.5821 34.4766 23.1747Z" fill="#13670B"/>
</svg>
