<svg width="50" height="50" viewBox="0 0 50 50" fill="none" xmlns="http://www.w3.org/2000/svg">
<path d="M47.131 28.1209C46.4778 26.4423 46.4778 24.58 47.131 22.9014L47.5137 21.8665C48.1851 20.1132 48.1605 18.1697 47.4449 16.434C46.7294 14.6982 45.3769 13.3015 43.6646 12.53L42.6517 12.0125C41.041 11.2702 39.748 9.97788 39.0053 8.36789L38.5551 7.3555C37.7832 5.64404 36.3858 4.2923 34.6492 3.57709C32.9126 2.86187 30.9681 2.83729 29.214 3.50839L28.1786 3.89085C26.4991 4.54374 24.6359 4.54374 22.9565 3.89085L21.9211 3.50839C20.1588 2.81719 18.1977 2.83128 16.4455 3.54773C14.6933 4.26419 13.2847 5.6279 12.5124 7.3555L11.9947 8.36789C11.252 9.97788 9.95904 11.2702 8.34826 12.0125L7.33536 12.4625C5.62306 13.234 4.27065 14.6307 3.55508 16.3665C2.83951 18.1022 2.81492 20.0457 3.48635 21.799L3.869 22.8339C4.52221 24.5125 4.52221 26.3748 3.869 28.0534L3.48635 29.0883C2.81492 30.8416 2.83951 32.7851 3.55508 34.5208C4.27065 36.2566 5.62306 37.6533 7.33536 38.4248L8.34826 38.8748C9.98254 39.6504 11.2786 40.9938 11.9947 42.6544L12.4449 43.6668C13.2168 45.3782 14.6142 46.73 16.3508 47.4452C18.0874 48.1604 20.0319 48.185 21.786 47.5139L22.8214 47.1314C24.5008 46.4785 26.3641 46.4785 28.0435 47.1314L29.0789 47.5139C30.8331 48.185 32.7775 48.1604 34.5142 47.4452C36.2508 46.73 37.6481 45.3782 38.4201 43.6668L38.8703 42.6544C39.6462 41.0209 40.9903 39.7255 42.6517 39.0098L43.6646 38.5598C45.3769 37.7882 46.7294 36.3916 47.4449 34.6558C48.1605 32.9201 48.1851 30.9766 47.5137 29.2233L47.131 28.1209ZM35.2913 20.4042L22.6414 33.0479C22.5403 33.1555 22.4183 33.2412 22.2828 33.2999C22.1473 33.3585 22.0012 33.3888 21.8536 33.3888C21.7059 33.3888 21.5598 33.3585 21.4243 33.2999C21.2888 33.2412 21.1668 33.1555 21.0658 33.0479L15.7087 27.7609C15.6032 27.6563 15.5194 27.5319 15.4623 27.3948C15.4052 27.2578 15.3757 27.1107 15.3757 26.9622C15.3757 26.8137 15.4052 26.6667 15.4623 26.5296C15.5194 26.3926 15.6032 26.2681 15.7087 26.1636L16.9016 24.9712C17.0027 24.8636 17.1247 24.7778 17.2602 24.7192C17.3957 24.6606 17.5418 24.6303 17.6894 24.6303C17.8371 24.6303 17.9832 24.6606 18.1187 24.7192C18.2542 24.7778 18.3762 24.8636 18.4772 24.9712L21.8536 28.3234L32.5228 17.6594C32.7331 17.4533 33.016 17.3379 33.3106 17.3379C33.6052 17.3379 33.888 17.4533 34.0984 17.6594L35.2913 18.8518C35.4909 19.061 35.6022 19.339 35.6022 19.628C35.6022 19.917 35.4909 20.195 35.2913 20.4042Z" fill="#13670B"/>
</svg>
