<svg width="1170" height="1139" viewBox="0 0 1170 1139" fill="none" xmlns="http://www.w3.org/2000/svg">
<path d="M242.77 915.341V699.745H401.63V790.522H734.48C798.024 790.522 811.388 730.004 810.128 699.745H968.988C976.553 835.911 878.211 903.994 798.781 911.559L242.77 915.341Z" fill="#13670B"/>
<path fill-rule="evenodd" clip-rule="evenodd" d="M0.6875 597.618V0.000488281H1169.45V1138.5H0.6875V699.742H106.594V1021.25H1059.76V105.907H106.594V484.146H242.76V196.685H719.341C957.632 192.902 1018.15 450.105 859.289 533.317C885.766 539.621 938.72 574.167 953.849 631.659H787.424C783.642 621.573 767.756 601.4 734.471 601.4H0.6875V597.618ZM704.198 317.72H401.606V484.145H704.198C750.154 484.145 787.41 446.89 787.41 400.933C787.41 354.976 750.155 317.72 704.198 317.72Z" fill="#13670B"/>
<rect x="552.926" y="938.036" width="105.907" height="52.9534" fill="#13670B"/>
</svg>
