<svg width="31" height="20" viewBox="0 0 31 20" fill="none" xmlns="http://www.w3.org/2000/svg">
<path d="M8 19.432C6.672 19.432 5.536 19.208 4.592 18.76C3.648 18.296 2.88 17.672 2.288 16.888C1.712 16.104 1.288 15.2 1.016 14.176C0.744 13.136 0.608 12.04 0.608 10.888V9.568C0.608 7.968 0.864 6.52 1.376 5.224C1.904 3.928 2.712 2.896 3.8 2.128C4.904 1.36 6.304 0.975999 8 0.975999C9.712 0.975999 11.104 1.36 12.176 2.128C13.264 2.896 14.072 3.928 14.6 5.224C15.128 6.52 15.392 7.968 15.392 9.568V10.888C15.392 12.04 15.256 13.136 14.984 14.176C14.712 15.2 14.28 16.104 13.688 16.888C13.112 17.672 12.352 18.296 11.408 18.76C10.48 19.208 9.344 19.432 8 19.432ZM8 16.816C9.552 16.816 10.688 16.296 11.408 15.256C12.144 14.2 12.512 12.536 12.512 10.264C12.512 7.88 12.136 6.176 11.384 5.152C10.648 4.112 9.52 3.592 8 3.592C6.48 3.592 5.344 4.112 4.592 5.152C3.856 6.176 3.488 7.864 3.488 10.216C3.488 12.504 3.856 14.176 4.592 15.232C5.328 16.288 6.464 16.816 8 16.816ZM18.704 19V15.88C18.704 15.16 18.808 14.544 19.016 14.032C19.24 13.504 19.608 13.032 20.12 12.616C20.632 12.2 21.32 11.8 22.184 11.416L25.304 10C26.088 9.648 26.688 9.208 27.104 8.68C27.536 8.136 27.752 7.44 27.752 6.592C27.752 5.616 27.472 4.848 26.912 4.288C26.352 3.712 25.552 3.424 24.512 3.424C23.488 3.424 22.688 3.712 22.112 4.288C21.552 4.848 21.272 5.632 21.272 6.64H18.488C18.488 5.6 18.704 4.656 19.136 3.808C19.584 2.944 20.256 2.256 21.152 1.744C22.048 1.232 23.168 0.975999 24.512 0.975999C25.856 0.975999 26.968 1.232 27.848 1.744C28.744 2.24 29.408 2.904 29.84 3.736C30.288 4.552 30.512 5.448 30.512 6.424V6.76C30.512 8.04 30.144 9.12 29.408 10C28.688 10.864 27.664 11.592 26.336 12.184L23.192 13.6C22.552 13.888 22.112 14.184 21.872 14.488C21.632 14.792 21.512 15.192 21.512 15.688V17.56L20.792 16.552H30.68V19H18.704Z" fill="#13670B"/>
</svg>
