<svg width="31" height="20" viewBox="0 0 31 20" fill="none" xmlns="http://www.w3.org/2000/svg">
<path d="M8 19.432C6.672 19.432 5.536 19.208 4.592 18.76C3.648 18.296 2.88 17.672 2.288 16.888C1.712 16.104 1.288 15.2 1.016 14.176C0.744 13.136 0.608 12.04 0.608 10.888V9.568C0.608 7.968 0.864 6.52 1.376 5.224C1.904 3.928 2.712 2.896 3.8 2.128C4.904 1.36 6.304 0.975999 8 0.975999C9.712 0.975999 11.104 1.36 12.176 2.128C13.264 2.896 14.072 3.928 14.6 5.224C15.128 6.52 15.392 7.968 15.392 9.568V10.888C15.392 12.04 15.256 13.136 14.984 14.176C14.712 15.2 14.28 16.104 13.688 16.888C13.112 17.672 12.352 18.296 11.408 18.76C10.48 19.208 9.344 19.432 8 19.432ZM8 16.816C9.552 16.816 10.688 16.296 11.408 15.256C12.144 14.2 12.512 12.536 12.512 10.264C12.512 7.88 12.136 6.176 11.384 5.152C10.648 4.112 9.52 3.592 8 3.592C6.48 3.592 5.344 4.112 4.592 5.152C3.856 6.176 3.488 7.864 3.488 10.216C3.488 12.504 3.856 14.176 4.592 15.232C5.328 16.288 6.464 16.816 8 16.816ZM24.272 19.432C22.944 19.432 21.808 19.184 20.864 18.688C19.92 18.176 19.2 17.496 18.704 16.648C18.224 15.784 17.984 14.84 17.984 13.816H20.744C20.744 14.792 21.056 15.568 21.68 16.144C22.32 16.72 23.184 17.008 24.272 17.008C24.992 17.008 25.608 16.88 26.12 16.624C26.648 16.352 27.056 15.976 27.344 15.496C27.632 15 27.776 14.424 27.776 13.768C27.776 12.792 27.464 12 26.84 11.392C26.216 10.768 25.36 10.456 24.272 10.456C23.792 10.456 23.368 10.52 23 10.648C22.648 10.776 22.336 10.936 22.064 11.128L20.696 8.752L26.936 4.336L26.696 3.904H18.68V1.48H29.744V4.816L24.008 8.8L22.232 8.68C22.52 8.584 22.832 8.504 23.168 8.44C23.52 8.376 23.912 8.344 24.344 8.344C25.656 8.344 26.768 8.584 27.68 9.064C28.608 9.528 29.32 10.16 29.816 10.96C30.312 11.76 30.56 12.656 30.56 13.648V13.96C30.56 14.936 30.312 15.84 29.816 16.672C29.32 17.504 28.608 18.176 27.68 18.688C26.752 19.184 25.616 19.432 24.272 19.432Z" fill="#13670B"/>
</svg>
