<svg width="33" height="20" viewBox="0 0 33 20" fill="none" xmlns="http://www.w3.org/2000/svg">
<path d="M8 19.432C6.672 19.432 5.536 19.208 4.592 18.76C3.648 18.296 2.88 17.672 2.288 16.888C1.712 16.104 1.288 15.2 1.016 14.176C0.744 13.136 0.608 12.04 0.608 10.888V9.568C0.608 7.968 0.864 6.52 1.376 5.224C1.904 3.928 2.712 2.896 3.8 2.128C4.904 1.36 6.304 0.975999 8 0.975999C9.712 0.975999 11.104 1.36 12.176 2.128C13.264 2.896 14.072 3.928 14.6 5.224C15.128 6.52 15.392 7.968 15.392 9.568V10.888C15.392 12.04 15.256 13.136 14.984 14.176C14.712 15.2 14.28 16.104 13.688 16.888C13.112 17.672 12.352 18.296 11.408 18.76C10.48 19.208 9.344 19.432 8 19.432ZM8 16.816C9.552 16.816 10.688 16.296 11.408 15.256C12.144 14.2 12.512 12.536 12.512 10.264C12.512 7.88 12.136 6.176 11.384 5.152C10.648 4.112 9.52 3.592 8 3.592C6.48 3.592 5.344 4.112 4.592 5.152C3.856 6.176 3.488 7.864 3.488 10.216C3.488 12.504 3.856 14.176 4.592 15.232C5.328 16.288 6.464 16.816 8 16.816ZM18.032 15.112V11.848L25.088 1.024L27.176 2.536L20.768 12.4L21.008 12.856H32.072V15.112H18.032ZM27.2 19V6.52H29.84V19H27.2Z" fill="#13670B"/>
</svg>
