<svg width="32" height="20" viewBox="0 0 32 20" fill="none" xmlns="http://www.w3.org/2000/svg">
<path d="M8 19.432C6.672 19.432 5.536 19.208 4.592 18.76C3.648 18.296 2.88 17.672 2.288 16.888C1.712 16.104 1.288 15.2 1.016 14.176C0.744 13.136 0.608 12.04 0.608 10.888V9.568C0.608 7.968 0.864 6.52 1.376 5.224C1.904 3.928 2.712 2.896 3.8 2.128C4.904 1.36 6.304 0.975999 8 0.975999C9.712 0.975999 11.104 1.36 12.176 2.128C13.264 2.896 14.072 3.928 14.6 5.224C15.128 6.52 15.392 7.968 15.392 9.568V10.888C15.392 12.04 15.256 13.136 14.984 14.176C14.712 15.2 14.28 16.104 13.688 16.888C13.112 17.672 12.352 18.296 11.408 18.76C10.48 19.208 9.344 19.432 8 19.432ZM8 16.816C9.552 16.816 10.688 16.296 11.408 15.256C12.144 14.2 12.512 12.536 12.512 10.264C12.512 7.88 12.136 6.176 11.384 5.152C10.648 4.112 9.52 3.592 8 3.592C6.48 3.592 5.344 4.112 4.592 5.152C3.856 6.176 3.488 7.864 3.488 10.216C3.488 12.504 3.856 14.176 4.592 15.232C5.328 16.288 6.464 16.816 8 16.816ZM24.656 19.432C23.296 19.432 22.136 19.16 21.176 18.616C20.232 18.072 19.512 17.352 19.016 16.456C18.52 15.544 18.272 14.568 18.272 13.528H21.032C21.032 14.2 21.184 14.8 21.488 15.328C21.792 15.84 22.216 16.248 22.76 16.552C23.304 16.856 23.944 17.008 24.68 17.008C25.416 17.008 26.056 16.856 26.6 16.552C27.16 16.248 27.592 15.824 27.896 15.28C28.2 14.736 28.352 14.12 28.352 13.432C28.352 12.744 28.2 12.128 27.896 11.584C27.608 11.04 27.184 10.608 26.624 10.288C26.08 9.952 25.432 9.784 24.68 9.784C24.104 9.784 23.536 9.896 22.976 10.12C22.416 10.328 21.976 10.616 21.656 10.984H19.016L19.904 1.48H29.576V3.904H21.32L22.208 3.04L21.584 9.472L20.864 9.256C21.328 8.744 21.896 8.336 22.568 8.032C23.24 7.712 24.04 7.552 24.968 7.552C26.296 7.552 27.408 7.824 28.304 8.368C29.216 8.912 29.912 9.624 30.392 10.504C30.872 11.368 31.112 12.296 31.112 13.288V13.6C31.112 14.592 30.864 15.536 30.368 16.432C29.872 17.312 29.144 18.032 28.184 18.592C27.224 19.152 26.048 19.432 24.656 19.432Z" fill="#13670B"/>
</svg>
