<svg width="50" height="50" viewBox="0 0 50 50" fill="none" xmlns="http://www.w3.org/2000/svg">
<circle cx="25" cy="25" r="25" fill="#1B2F1A"/>
<g clip-path="url(#clip0_972_369)">
<path d="M27.285 26.8721C26.1571 27.7759 25.4533 28.2242 24.7512 28.2242C24.0771 28.2242 23.3962 27.8042 22.3433 26.9838L16.0758 32.4992H33.7262L27.3566 26.8184C27.3333 26.8354 27.3071 26.8567 27.285 26.8721Z" fill="white"/>
<path d="M19.8517 25.0562C18.3637 23.9087 16.6475 22.5808 15 21.2783V31.6754C15 31.7087 15.0158 31.7367 15.0192 31.7675L21.3379 26.2067C20.88 25.8492 20.3888 25.4712 19.8517 25.0562Z" fill="white"/>
<path d="M34.9509 31.9169C34.9763 31.8415 35 31.7623 35 31.6752V20.8369C33.0221 22.3752 30.1596 24.6048 28.3517 26.0315L34.9509 31.9169Z" fill="white"/>
<path d="M33.75 17.5H16.25C15.7937 17.5 15 18.2946 15 18.75V19.735C16.8433 21.2025 18.8454 22.7471 20.5417 24.0554C21.4771 24.7775 22.3154 25.4262 22.9771 25.9429C24.7604 27.3417 24.7604 27.3417 26.5808 25.8863C28.2271 24.5704 32.6562 21.1237 35 19.3008V18.7512C35 18.2933 34.2067 17.5 33.75 17.5Z" fill="white"/>
</g>
<defs>
<clipPath id="clip0_972_369">
<rect width="20" height="20" fill="white" transform="translate(15 15)"/>
</clipPath>
</defs>
</svg>
