<svg width="50" height="50" viewBox="0 0 50 50" fill="none" xmlns="http://www.w3.org/2000/svg">
<circle cx="25" cy="25" r="25" fill="#1B2F1A"/>
<path d="M25 15C23.1579 15.0006 21.3518 15.51 19.7808 16.472C18.2099 17.434 16.9352 18.8112 16.0973 20.4517C15.2595 22.0922 14.8911 23.9323 15.0327 25.7689C15.1743 27.6056 15.8205 29.3674 16.9 30.86L16 33.6C15.9697 33.6877 15.9649 33.7821 15.9861 33.8724C16.0074 33.9627 16.0538 34.0451 16.12 34.11C16.1852 34.176 16.2671 34.223 16.3569 34.2459C16.4468 34.2688 16.5412 34.2668 16.63 34.24L19.48 33.32C20.7798 34.1867 22.2646 34.7368 23.8154 34.9262C25.3661 35.1156 26.9397 34.9391 28.4099 34.4107C29.8801 33.8823 31.2061 33.0168 32.2815 31.8835C33.3569 30.7503 34.1518 29.3808 34.6025 27.885C35.0532 26.3891 35.1472 24.8085 34.8769 23.2698C34.6066 21.7311 33.9795 20.2771 33.0459 19.0244C32.1124 17.7717 30.8983 16.7552 29.5011 16.0563C28.1038 15.3575 26.5623 14.9957 25 15ZM30.82 29.12C30.6145 29.4907 30.3279 29.81 29.9815 30.0542C29.6352 30.2984 29.2381 30.461 28.82 30.53C28.3 30.64 27.61 30.73 25.32 29.78C23.2841 28.7955 21.5554 27.2742 20.32 25.38C19.6421 24.5159 19.2288 23.4739 19.13 22.38C19.1144 21.9257 19.1955 21.4733 19.3679 21.0526C19.5403 20.632 19.8 20.2527 20.13 19.94C20.4077 19.7012 20.7637 19.573 21.13 19.58H21.46C21.75 19.58 21.9 19.58 22.1 20.07C22.3 20.56 22.92 22.07 22.99 22.23C23.0425 22.3088 23.0746 22.3994 23.0833 22.4937C23.0921 22.588 23.0772 22.683 23.04 22.77C22.9543 22.9394 22.8429 23.0945 22.71 23.23C22.57 23.4 22.42 23.53 22.28 23.71C22.1839 23.7803 22.1181 23.8845 22.0959 24.0014C22.0736 24.1183 22.0965 24.2394 22.16 24.34C22.6007 25.0814 23.1464 25.755 23.78 26.34C24.4645 26.9677 25.262 27.4597 26.13 27.79C26.2439 27.8454 26.3721 27.8646 26.4973 27.8449C26.6224 27.8252 26.7385 27.7677 26.83 27.68C27.1109 27.3635 27.3714 27.0295 27.61 26.68C27.6828 26.5622 27.7967 26.4755 27.9297 26.4367C28.0626 26.3979 28.2053 26.4098 28.33 26.47C28.6 26.56 30.03 27.27 30.33 27.41C30.63 27.55 30.82 27.63 30.89 27.75C30.9949 28.2043 30.9706 28.6788 30.82 29.12Z" fill="white"/>
</svg>
