<svg width="263" height="69" viewBox="0 0 263 69" fill="none" xmlns="http://www.w3.org/2000/svg">
<path d="M16.5371 52.7941V40.7378H25.4207V45.8141H44.0339C47.5874 45.8141 48.3347 42.4299 48.2642 40.7378H57.1478C57.5708 48.3523 52.0714 52.1595 47.6297 52.5826L16.5371 52.7941Z" fill="#13670B"/>
<path fill-rule="evenodd" clip-rule="evenodd" d="M3 35.0266V1.60742H68.3578V65.2731H3V40.7375H8.92239V58.7162H62.2239V7.52981H8.92239V28.6812H16.5369V12.6061H43.1876C56.513 12.3946 59.8972 26.7776 51.0137 31.4309C52.4943 31.7834 55.4555 33.7152 56.3015 36.9302H46.9949C46.7834 36.3662 45.895 35.2381 44.0337 35.2381H3V35.0266ZM42.3411 19.3746H25.42V28.6812H42.3411C44.9111 28.6812 46.9944 26.5978 46.9944 24.0279C46.9944 21.458 44.9111 19.3746 42.3411 19.3746Z" fill="#13670B"/>
<rect x="33.8809" y="54.063" width="5.92239" height="2.96119" fill="#13670B"/>
<path d="M105.164 52.7727C105.164 56.5587 103.942 59.7493 101.5 62.3445C99.0878 64.9092 96.1109 66.1916 92.5692 66.1916C89.1801 66.1916 86.3406 64.8023 84.0507 62.0239V65.3672H78.4633V31.5223H84.5545V42.6055C86.417 40.3156 89.058 39.1706 92.4776 39.1706C96.0498 39.1706 99.0572 40.4835 101.5 43.1093C103.942 45.7045 105.164 48.9256 105.164 52.7727ZM99.1183 52.7727C99.1183 50.5438 98.4008 48.7272 96.9658 47.3227C95.5308 45.8877 93.7599 45.1549 91.6532 45.1244C89.577 45.0939 87.8214 45.7961 86.3864 47.2311C84.9514 48.6661 84.2339 50.4523 84.2339 52.5895C84.2339 54.7573 84.9514 56.5892 86.3864 58.0853C87.8214 59.5508 89.5923 60.2836 91.699 60.2836C93.8363 60.2836 95.6071 59.5814 97.0116 58.1769C98.4161 56.7419 99.1183 54.9405 99.1183 52.7727ZM133.154 52.3147C133.154 53.4444 133.047 54.4672 132.833 55.3832H113.186C113.613 56.8793 114.453 58.07 115.704 58.9554C116.956 59.8409 118.437 60.2836 120.147 60.2836C122.162 60.2836 123.933 59.5356 125.459 58.0395H132.238C131.413 60.3905 129.856 62.3445 127.566 63.9016C125.276 65.4283 122.788 66.1916 120.101 66.1916C116.376 66.1916 113.201 64.8787 110.575 62.2529C107.98 59.6271 106.682 56.4518 106.682 52.7269C106.682 48.9409 107.995 45.735 110.621 43.1093C113.277 40.4835 116.452 39.1706 120.147 39.1706C123.627 39.1706 126.665 40.4835 129.261 43.1093C131.856 45.7045 133.154 48.773 133.154 52.3147ZM127.017 49.979C126.65 48.6051 125.795 47.4601 124.452 46.5441C123.108 45.5976 121.628 45.1244 120.009 45.1244C118.422 45.1244 116.987 45.5671 115.704 46.4525C114.453 47.3074 113.552 48.4829 113.002 49.979H127.017ZM161.853 65.3672H156.265V62.1155C154.647 63.6116 153.166 64.6649 151.823 65.2756C150.51 65.8862 149.029 66.1916 147.381 66.1916C143.839 66.1916 140.893 64.9245 138.542 62.3903C136.221 59.8256 135.061 56.6045 135.061 52.7269C135.061 48.8493 136.252 45.6282 138.633 43.0635C141.015 40.4682 144.007 39.1706 147.61 39.1706C150.846 39.1706 153.731 40.5904 156.265 43.4299V39.995H161.853V65.3672ZM156.082 52.7727C156.082 50.4828 155.365 48.6356 153.93 47.2311C152.525 45.7961 150.678 45.0786 148.388 45.0786C146.404 45.0786 144.694 45.8266 143.259 47.3227C141.854 48.8188 141.152 50.6202 141.152 52.7269C141.152 54.8336 141.87 56.6197 143.305 58.0853C144.77 59.5508 146.556 60.2836 148.663 60.2836C150.77 60.2836 152.525 59.5661 153.93 58.1311C155.365 56.6655 156.082 54.8794 156.082 52.7727ZM190.575 57.1235C189.751 59.7798 188.163 61.9629 185.812 63.6727C183.492 65.3519 180.882 66.1916 177.981 66.1916C174.195 66.1916 170.974 64.8939 168.318 62.2987C165.692 59.6729 164.379 56.4823 164.379 52.7269C164.379 49.002 165.692 45.8114 168.318 43.1551C170.974 40.4988 174.149 39.1706 177.844 39.1706C180.805 39.1706 183.446 40.0255 185.767 41.7353C188.118 43.4451 189.721 45.674 190.575 48.4219H183.614C182.362 46.2236 180.424 45.1244 177.798 45.1244C175.661 45.1244 173.905 45.8419 172.531 47.2769C171.188 48.7119 170.516 50.5438 170.516 52.7727C170.516 54.9099 171.233 56.6961 172.668 58.1311C174.103 59.5356 175.874 60.2378 177.981 60.2378C180.454 60.2378 182.332 59.1997 183.614 57.1235H190.575ZM219.733 52.7269C219.733 56.4518 218.42 59.6271 215.794 62.2529C213.199 64.8787 210.039 66.1916 206.314 66.1916C202.589 66.1916 199.398 64.8787 196.742 62.2529C194.086 59.6271 192.758 56.4518 192.758 52.7269C192.758 49.002 194.086 45.8114 196.742 43.1551C199.398 40.4988 202.589 39.1706 206.314 39.1706C210.039 39.1706 213.199 40.4988 215.794 43.1551C218.42 45.7808 219.733 48.9714 219.733 52.7269ZM213.642 52.6811C213.642 50.5744 212.924 48.7882 211.489 47.3227C210.085 45.8572 208.344 45.1244 206.268 45.1244C204.192 45.1244 202.436 45.8572 201.001 47.3227C199.566 48.7882 198.849 50.5744 198.849 52.6811C198.849 54.7878 199.566 56.5739 201.001 58.0395C202.436 59.505 204.192 60.2378 206.268 60.2378C208.344 60.2378 210.085 59.505 211.489 58.0395C212.924 56.5739 213.642 54.7878 213.642 52.6811ZM244.768 65.3672H238.677V51.4445C238.677 49.7653 238.295 48.3455 237.532 47.1853C236.647 45.8114 235.364 45.1244 233.685 45.1244C232.189 45.1244 230.953 45.5976 229.975 46.5441C228.876 47.6433 228.327 49.1394 228.327 51.0324V65.3672H222.236V39.995H227.823V42.3307C229.746 40.224 232.082 39.1706 234.83 39.1706C237.853 39.1706 240.295 40.2393 242.158 42.3765C243.898 44.4222 244.768 47.0174 244.768 50.1622V65.3672Z" fill="#040817"/>
<rect x="78.4609" y="1" width="6.09688" height="30.5321" fill="#040817"/>
<path d="M107.474 24.4587C107.474 23.2278 107.967 11.9033 107.967 11.9033C105.603 15.0545 103.043 16.1705 102.058 16.3346V25.4434C102.058 26.9205 100.957 27.9895 99.5965 28.3976C97.1346 29.1362 94.2625 27.7411 92.2109 26.9205C93.5239 28.4797 97.1781 31.9628 101.812 30.8595C106.982 29.6286 107.474 25.6896 107.474 24.4587Z" fill="#13670B"/>
<ellipse cx="95.4112" cy="14.1192" rx="2.95421" ry="2.70802" fill="#13670B"/>
<ellipse cx="205.362" cy="29.3823" rx="2.95421" ry="2.70802" fill="#13670B"/>
<ellipse cx="242.425" cy="29.3823" rx="2.95421" ry="2.70802" fill="#13670B"/>
<ellipse cx="213.732" cy="29.3823" rx="2.95421" ry="2.70802" fill="#13670B"/>
<path fill-rule="evenodd" clip-rule="evenodd" d="M122.738 22.9817C122.738 23.9665 122.382 26.245 120.769 27.1669C119.046 28.1516 117.076 28.644 111.906 26.1821C113.219 28.5619 117.322 32.0905 122.492 30.3673C124.216 29.8749 127.662 27.7085 127.662 22.9817V22.7356H245.338V5.01032C243.565 7.57063 241.153 9.03132 240.168 9.44163V18.3042H216.534V5.01032C214.171 7.96453 212.103 9.19545 211.365 9.44163V18.3042H189.947C190.144 12.0019 185.597 9.76988 183.3 9.44163H158.189C158.517 9.11339 159.174 8.01376 159.174 6.24124C159.174 4.46872 155.973 1.56375 153.758 0.825195C154.578 2.13818 156.072 5.15803 155.481 6.73361C154.89 8.30918 153.101 9.19545 152.28 9.44163H147.603V13.8729H181.33C184.678 14.4638 184.859 17.0733 184.531 18.3042H127.17V7.47216C117.913 8.063 112.973 13.955 111.66 16.8271V22.9817H122.738ZM122.492 18.3045V13.3809C121.097 13.627 118.061 14.661 117.076 16.8274V18.3045H122.492Z" fill="#13670B"/>
</svg>
