<svg width="2701" height="676" viewBox="0 0 2701 676" fill="none" xmlns="http://www.w3.org/2000/svg">
<path d="M140.631 540.052V414.808H232.916V467.542H426.276C463.19 467.542 470.954 432.386 470.221 414.808H562.506C566.901 493.909 509.772 533.46 463.629 537.855L140.631 540.052Z" fill="#D3D3D3"/>
<path fill-rule="evenodd" clip-rule="evenodd" d="M0 355.479V8.31104H678.956V669.689H0V414.806H61.5235V601.573H615.235V69.8345H61.5235V289.561H140.625V122.569H417.481C555.909 120.372 591.065 269.786 498.78 318.126C514.161 321.788 544.923 341.856 553.712 375.255H457.032C454.835 369.395 445.606 357.677 426.27 357.677H0V355.479ZM408.684 192.878H232.903V289.558H408.684C435.382 289.558 457.024 267.915 457.024 241.218C457.024 214.52 435.382 192.878 408.684 192.878Z" fill="#D3D3D3"/>
<rect x="320.799" y="553.236" width="61.5235" height="30.7618" fill="#D3D3D3"/>
<path d="M1061.31 535.871C1061.31 575.201 1048.63 608.346 1023.25 635.306C998.194 661.948 967.269 675.27 930.477 675.27C895.27 675.27 865.773 660.838 841.985 631.975V666.706H783.941V315.116H847.218V430.251C866.566 406.463 894.002 394.569 929.525 394.569C966.635 394.569 997.877 408.207 1023.25 435.484C1048.63 462.444 1061.31 495.907 1061.31 535.871ZM998.511 535.871C998.511 512.717 991.058 493.845 976.15 479.255C961.243 464.347 942.847 456.735 920.962 456.418C899.394 456.101 881.156 463.396 866.249 478.303C851.341 493.211 843.888 511.765 843.888 533.968C843.888 556.487 851.341 575.518 866.249 591.059C881.156 606.284 899.552 613.896 921.437 613.896C943.64 613.896 962.036 606.601 976.626 592.011C991.216 577.104 998.511 558.39 998.511 535.871ZM1352.08 531.113C1352.08 542.849 1350.97 553.474 1348.75 562.989H1144.65C1149.09 578.531 1157.81 590.901 1170.81 600.099C1183.82 609.297 1199.2 613.896 1216.96 613.896C1237.9 613.896 1256.29 606.125 1272.15 590.584H1342.56C1334 615.006 1317.82 635.306 1294.04 651.482C1270.25 667.34 1244.4 675.27 1216.49 675.27C1177.79 675.27 1144.8 661.631 1117.53 634.354C1090.57 607.077 1077.09 574.091 1077.09 535.395C1077.09 496.065 1090.73 462.762 1118 435.484C1145.6 408.207 1178.58 394.569 1216.96 394.569C1253.12 394.569 1284.68 408.207 1311.64 435.484C1338.6 462.444 1352.08 494.321 1352.08 531.113ZM1288.33 506.849C1284.52 492.576 1275.64 480.682 1261.68 471.167C1247.73 461.334 1232.34 456.418 1215.53 456.418C1199.04 456.418 1184.13 461.017 1170.81 470.215C1157.81 479.096 1148.45 491.307 1142.74 506.849H1288.33ZM1650.22 666.706H1592.17V632.927C1575.36 648.468 1559.98 659.411 1546.02 665.755C1532.38 672.098 1517 675.27 1499.87 675.27C1463.08 675.27 1432.47 662.107 1408.05 635.781C1383.95 609.139 1371.89 575.676 1371.89 535.395C1371.89 495.114 1384.26 461.651 1409 435.009C1433.74 408.049 1464.83 394.569 1502.25 394.569C1535.87 394.569 1565.85 409.317 1592.17 438.815V403.132H1650.22V666.706ZM1590.27 535.871C1590.27 512.083 1582.82 492.893 1567.91 478.303C1553.32 463.396 1534.13 455.942 1510.34 455.942C1489.72 455.942 1471.96 463.713 1457.06 479.255C1442.47 494.796 1435.17 513.51 1435.17 535.395C1435.17 557.28 1442.62 575.835 1457.53 591.059C1472.76 606.284 1491.31 613.896 1513.2 613.896C1535.08 613.896 1553.32 606.443 1567.91 591.535C1582.82 576.311 1590.27 557.756 1590.27 535.871ZM1948.59 581.068C1940.03 608.663 1923.54 631.341 1899.12 649.103C1875.01 666.547 1847.89 675.27 1817.76 675.27C1778.43 675.27 1744.97 661.79 1717.37 634.83C1690.1 607.553 1676.46 574.408 1676.46 535.395C1676.46 496.699 1690.1 463.555 1717.37 435.96C1744.97 408.366 1777.95 394.569 1816.33 394.569C1847.1 394.569 1874.53 403.45 1898.64 421.211C1923.06 438.973 1939.71 462.127 1948.59 490.673H1876.28C1863.27 467.836 1843.13 456.418 1815.86 456.418C1793.65 456.418 1775.42 463.872 1761.14 478.779C1747.19 493.686 1740.21 512.717 1740.21 535.871C1740.21 558.073 1747.66 576.628 1762.57 591.535C1777.48 606.125 1795.87 613.42 1817.76 613.42C1843.45 613.42 1862.96 602.636 1876.28 581.068H1948.59ZM2251.49 535.395C2251.49 574.091 2237.85 607.077 2210.57 634.354C2183.61 661.631 2150.79 675.27 2112.09 675.27C2073.39 675.27 2040.25 661.631 2012.66 634.354C1985.06 607.077 1971.26 574.091 1971.26 535.395C1971.26 496.699 1985.06 463.555 2012.66 435.96C2040.25 408.366 2073.39 394.569 2112.09 394.569C2150.79 394.569 2183.61 408.366 2210.57 435.96C2237.85 463.237 2251.49 496.382 2251.49 535.395ZM2188.21 534.919C2188.21 513.034 2180.76 494.479 2165.85 479.255C2151.26 464.03 2133.18 456.418 2111.61 456.418C2090.05 456.418 2071.81 464.03 2056.9 479.255C2041.99 494.479 2034.54 513.034 2034.54 534.919C2034.54 556.804 2041.99 575.359 2056.9 590.584C2071.81 605.808 2090.05 613.42 2111.61 613.42C2133.18 613.42 2151.26 605.808 2165.85 590.584C2180.76 575.359 2188.21 556.804 2188.21 534.919ZM2511.57 666.706H2448.29V522.074C2448.29 504.629 2444.32 489.88 2436.39 477.827C2427.2 463.555 2413.88 456.418 2396.43 456.418C2380.89 456.418 2368.04 461.334 2357.89 471.167C2346.48 482.585 2340.77 498.127 2340.77 517.792V666.706H2277.49V403.132H2335.53V427.396C2355.51 405.511 2379.78 394.569 2408.32 394.569C2439.73 394.569 2465.1 405.67 2484.45 427.872C2502.53 449.123 2511.57 476.083 2511.57 508.752V666.706Z" fill="#D3D3D3"/>
<rect x="783.926" y="2" width="63.3362" height="317.176" fill="#D3D3D3"/>
<path d="M1085.31 245.696C1085.31 232.909 1090.43 115.267 1090.43 115.267C1065.87 148.002 1039.28 159.596 1029.05 161.301V255.926C1029.05 271.27 1017.6 282.375 1003.47 286.615C977.899 294.287 948.062 279.795 926.75 271.27C940.39 287.467 978.351 323.651 1026.49 312.189C1080.2 299.402 1085.31 258.483 1085.31 245.696Z" fill="#D3D3D3"/>
<ellipse cx="960.004" cy="138.283" rx="30.6892" ry="28.1317" fill="#D3D3D3"/>
<ellipse cx="2102.2" cy="296.845" rx="30.6892" ry="28.1317" fill="#D3D3D3"/>
<ellipse cx="2487.24" cy="296.845" rx="30.6892" ry="28.1317" fill="#D3D3D3"/>
<ellipse cx="2189.15" cy="296.845" rx="30.6892" ry="28.1317" fill="#D3D3D3"/>
<path fill-rule="evenodd" clip-rule="evenodd" d="M1243.87 230.349C1243.87 240.579 1240.17 264.249 1223.41 273.825C1205.51 284.055 1185.05 289.17 1131.35 263.595C1144.99 288.317 1187.61 324.974 1241.32 307.072C1259.22 301.957 1295.02 279.451 1295.02 230.349V227.791H2517.47V43.6565C2499.06 70.2538 2474 85.4278 2463.77 89.6902V181.758H2218.25V43.6565C2193.7 74.3456 2172.22 87.1328 2164.55 89.6902V181.758H1942.05C1944.1 116.287 1896.87 93.1001 1873 89.6902H1612.14C1615.55 86.2803 1622.37 74.8571 1622.37 56.4436C1622.37 38.0301 1589.13 7.85247 1566.11 0.180176C1574.63 13.8198 1590.15 45.1909 1584.01 61.5585C1577.87 77.926 1559.29 87.1328 1550.77 89.6902H1502.17V135.724H1852.54C1887.32 141.862 1889.2 168.971 1885.79 181.758H1289.91V69.2308C1193.75 75.3686 1142.43 136.576 1128.79 166.413V230.349H1243.87ZM1241.31 181.757V130.608C1226.82 133.166 1195.28 143.907 1185.05 166.412V181.757H1241.31Z" fill="#D3D3D3"/>
</svg>
